<svg xmlns="http://www.w3.org/2000/svg" viewBox="620 620 760 760">
<style>path{fill:#1E4A3A}@media(prefers-color-scheme:dark){path{fill:#C9A24B}path:nth-of-type(2),path:nth-of-type(3){fill:#A88434}path:last-child{fill:#FAF7F0}}</style>
<path d="M1322.64,1025.65c-12.35,158.1-138.89,284.64-296.99,296.99v40.67c40.15-2.75,79.14-12.05,116.24-27.74    c43.35-18.33,82.27-44.57,115.68-78c33.42-33.42,59.66-72.34,78-115.68c15.69-37.1,24.99-76.09,27.74-116.24H1322.64z"/>
<path d="M677.36,1025.24h-40.67c2.75,40.15,12.05,79.14,27.74,116.24c18.33,43.35,44.58,82.27,78,115.68    c33.42,33.43,72.34,59.67,115.69,78c37.1,15.69,76.09,24.99,116.24,27.74v-40.67C816.25,1309.88,689.71,1183.34,677.36,1025.24z"/>
<path d="M1335.16,858.11c-18.34-43.34-44.58-82.27-78-115.68c-33.42-33.42-72.34-59.66-115.68-78    c-37.1-15.69-76.09-24.99-116.24-27.74v40.67c158.1,12.35,284.64,138.9,296.99,296.99h40.67    C1360.15,934.2,1350.85,895.21,1335.16,858.11z"/>
<path d="M858.11,664.43c-43.35,18.34-82.27,44.58-115.69,78c-33.42,33.42-59.67,72.35-78,115.68    c-15.69,37.1-24.99,76.09-27.74,116.24h40.67c12.35-158.09,138.89-284.64,296.99-296.99v-40.67    C934.2,639.44,895.21,648.74,858.11,664.43z"/>
<path d="M1000.22,1297.2c-79.33,0-153.9-30.89-209.99-86.98c-56.09-56.09-86.98-130.67-86.98-209.99s30.89-153.9,86.98-209.99    s130.67-86.98,209.99-86.98s153.9,30.89,209.99,86.98c56.09,56.09,86.98,130.67,86.98,209.99s-30.89,153.9-86.98,209.99    C1154.13,1266.31,1079.55,1297.2,1000.22,1297.2z M1000.22,714.18c-157.73,0-286.05,128.32-286.05,286.05    s128.32,286.05,286.05,286.05s286.05-128.32,286.05-286.05S1157.95,714.18,1000.22,714.18z"/>
<path d="M1138.35,924.48h-6.77c-10.16-66.28-59.99-88.05-101.11-88.05l-72.57,0.48l89.98,138.84    c6.77-10.64,11.13-26.12,11.13-39.67h7.74v138.36h-7.74c0-36.28-25.16-65.31-66.28-65.31h-21.29v133.04    c0,31.45,25.64,35.32,47.41,35.32v6.29h-140.3v-6.29c17.42,0,42.09-6.77,42.09-35.8v-139.33h72.57c5.32,0,10.16-0.48,14.51-0.97    l-96.27-147.07c0,0-10.64-17.9-32.9-17.9v-6.29h253.02L1138.35,924.48z"/>
</svg>
